<svg xmlns="http://www.w3.org/2000/svg" viewBox="0 0 1600 360" preserveAspectRatio="xMidYMax slice"><rect x="0" y="300" width="1600" height="60" fill="#1C3350"/><path d="M0 300 L0 188 L65.5 156 L131 188 L131 300 Z" fill="#23405F"/><rect x="14" y="204" width="16" height="24" rx="3" fill="#E9A83C" fill-opacity="0.85"/><path d="M137 300 L137 244 L185.0 212 L233 244 L233 300 Z" fill="#23405F"/><rect x="151" y="260" width="16" height="24" rx="3" fill="#E9A83C" fill-opacity="0.85"/><rect x="174" y="260" width="16" height="24" rx="3" fill="#E9A83C" fill-opacity="0.85"/><rect x="196" y="260" width="16" height="24" rx="3" fill="#E9A83C" fill-opacity="0.85"/><path d="M230 300 L230 211 L298.0 179 L366 211 L366 300 Z" fill="#23405F"/><rect x="244" y="227" width="16" height="24" rx="3" fill="#E9A83C" fill-opacity="0.85"/><path d="M376 300 L376 246 L434.5 214 L493 246 L493 300 Z" fill="#23405F"/><rect x="390" y="262" width="16" height="24" rx="3" fill="#E9A83C" fill-opacity="0.85"/><path d="M500 300 L500 244 L571.5 212 L643 244 L643 300 Z" fill="#23405F"/><rect x="514" y="260" width="16" height="24" rx="3" fill="#E9A83C" fill-opacity="0.85"/><path d="M639 300 L639 221 L719.0 189 L799 221 L799 300 Z" fill="#23405F"/><rect x="653" y="237" width="16" height="24" rx="3" fill="#E9A83C" fill-opacity="0.85"/><path d="M796 300 L796 208 L855.0 176 L914 208 L914 300 Z" fill="#23405F"/><rect x="810" y="224" width="16" height="24" rx="3" fill="#E9A83C" fill-opacity="0.85"/><rect x="840" y="224" width="16" height="24" rx="3" fill="#E9A83C" fill-opacity="0.85"/><rect x="870" y="224" width="16" height="24" rx="3" fill="#E9A83C" fill-opacity="0.85"/><path d="M909 300 L909 211 L990.5 179 L1072 211 L1072 300 Z" fill="#23405F"/><rect x="923" y="227" width="16" height="24" rx="3" fill="#E9A83C" fill-opacity="0.85"/><rect x="968" y="227" width="16" height="24" rx="3" fill="#E9A83C" fill-opacity="0.85"/><path d="M1067 300 L1067 246 L1126.0 214 L1185 246 L1185 300 Z" fill="#23405F"/><rect x="1081" y="262" width="16" height="24" rx="3" fill="#E9A83C" fill-opacity="0.85"/><rect x="1111" y="262" width="16" height="24" rx="3" fill="#E9A83C" fill-opacity="0.85"/><rect x="1141" y="262" width="16" height="24" rx="3" fill="#E9A83C" fill-opacity="0.85"/><path d="M1183 300 L1183 222 L1246.5 190 L1310 222 L1310 300 Z" fill="#23405F"/><rect x="1197" y="238" width="16" height="24" rx="3" fill="#E9A83C" fill-opacity="0.85"/><path d="M1307 300 L1307 229 L1388.5 197 L1470 229 L1470 300 Z" fill="#23405F"/><rect x="1321" y="245" width="16" height="24" rx="3" fill="#E9A83C" fill-opacity="0.85"/><rect x="1366" y="245" width="16" height="24" rx="3" fill="#E9A83C" fill-opacity="0.85"/><rect x="1411" y="245" width="16" height="24" rx="3" fill="#E9A83C" fill-opacity="0.85"/><path d="M1469 300 L1469 211 L1520.5 179 L1572 211 L1572 300 Z" fill="#23405F"/><rect x="1483" y="227" width="16" height="24" rx="3" fill="#E9A83C" fill-opacity="0.85"/><rect x="1508" y="227" width="16" height="24" rx="3" fill="#E9A83C" fill-opacity="0.85"/><rect x="1533" y="227" width="16" height="24" rx="3" fill="#E9A83C" fill-opacity="0.85"/><path d="M1572 300 L1572 242 L1640.5 210 L1709 242 L1709 300 Z" fill="#23405F"/><rect x="1586" y="258" width="16" height="24" rx="3" fill="#E9A83C" fill-opacity="0.85"/><rect x="1622" y="258" width="16" height="24" rx="3" fill="#E9A83C" fill-opacity="0.85"/><rect x="1659" y="258" width="16" height="24" rx="3" fill="#E9A83C" fill-opacity="0.85"/><path d="M720 300 L720 150 L760 150 L760 90 L780 70 L800 90 L800 150 L880 150 L880 90 L900 70 L920 90 L920 150 L960 150 L960 300 Z" fill="#1C3350"/><path d="M820 300 L820 230 Q840 205 860 230 L860 300 Z" fill="#E9A83C" fill-opacity="0.8"/></svg>